inDegrees=no
num_controls=7
num_derivatives=13
num_iterations=232
num_multipliers=7
num_parameters=0
num_slacks=7
num_states=26
objective=5.651975
objective_accelerations=0.645329
objective_balance=0.089571
objective_effort=0.506472
objective_height=4.390045
objective_ligament=0.020559
solver_duration=2560.219124
status=Solve_Succeeded
success=true
DataType=double
version=3
OpenSimVersion=4.4-2022-07-23-0e9fedc
endheader
time	/jointset/ground_pelvis/pelvis_tilt/value	/jointset/ground_pelvis/pelvis_tx/value	/jointset/ground_pelvis/pelvis_ty/value	/jointset/hip_l/hip_flexion_l/value	/jointset/hip_l/hip_adduction_l/value	/jointset/hip_l/hip_rotation_l/value	/jointset/back/lumbar_extension/value	/jointset/patellofemoral_l/patellar_flexion_l/value	/jointset/knee_l/knee_flexion_l/value	/jointset/knee_l/knee_adduction_l/value	/jointset/knee_l/knee_rotation_l/value	/jointset/ankle_l/ankle_angle_l/value	/jointset/subtalar_l/subtalar_angle_l/value	/jointset/ground_pelvis/pelvis_tilt/speed	/jointset/ground_pelvis/pelvis_tx/speed	/jointset/ground_pelvis/pelvis_ty/speed	/jointset/hip_l/hip_flexion_l/speed	/jointset/hip_l/hip_adduction_l/speed	/jointset/hip_l/hip_rotation_l/speed	/jointset/back/lumbar_extension/speed	/jointset/patellofemoral_l/patellar_flexion_l/speed	/jointset/knee_l/knee_flexion_l/speed	/jointset/knee_l/knee_adduction_l/speed	/jointset/knee_l/knee_rotation_l/speed	/jointset/ankle_l/ankle_angle_l/speed	/jointset/subtalar_l/subtalar_angle_l/speed	/forceset/tau_hip_flexion_l	/forceset/tau_hip_adduction_l	/forceset/tau_hip_rotation_l	/forceset/tau_knee_flexion_l	/forceset/tau_ankle_angle_l	/forceset/tau_subtalar_angle_l	/forceset/tau_lumbar_extension	lambda_cid13_p0	lambda_cid13_p1	lambda_cid13_p2	lambda_cid13_p3	lambda_cid13_p4	lambda_cid13_p5	lambda_cid14_p0	/jointset/ground_pelvis/pelvis_tilt/accel	/jointset/ground_pelvis/pelvis_tx/accel	/jointset/ground_pelvis/pelvis_ty/accel	/jointset/hip_l/hip_flexion_l/accel	/jointset/hip_l/hip_adduction_l/accel	/jointset/hip_l/hip_rotation_l/accel	/jointset/back/lumbar_extension/accel	/jointset/patellofemoral_l/patellar_flexion_l/accel	/jointset/knee_l/knee_flexion_l/accel	/jointset/knee_l/knee_adduction_l/accel	/jointset/knee_l/knee_rotation_l/accel	/jointset/ankle_l/ankle_angle_l/accel	/jointset/subtalar_l/subtalar_angle_l/accel	gamma_cid13_p0	gamma_cid13_p1	gamma_cid13_p2	gamma_cid13_p3	gamma_cid13_p4	gamma_cid13_p5	gamma_cid14_p0
1	-0.7817940201055689	-0.176627278459835	0.5785654292225278	2.094395028528346	-0.3066875191622059	0.09810992856314757	-0.4363321425788815	1.110732175201143	1.110732175200984	-0.1745315582451181	0.1745324556416382	-0.01861066955165962	-0.06188676296889809	-0.01067679908505783	0.001084667863671397	-0.002874267828514523	0.01594063223162348	0.000693218994277334	0.003394422646720319	-5.246780615978292e-06	0.00852097487226483	0.008520974872264452	3.895957128498705e-06	-3.583424730507517e-06	0.004005863895707614	0.00137810058025231	-0.5075472428515775	-0.002245063047834862	-0.01683534299288671	-0.1987292942724497	0.1932175166804484	0.0387052267583	0.3892469159947359	14.81202956387194	-19.06493218466839	2.250716249328743	3.926432173018103	-736.9940622237023	-43.08390738700437	-3.40552560668467	2.376613373344443	0.3984492737700358	1.746615831835513	-6.822851461482345	-0.2644909168824973	-1.596777581597302	-0.02071365361058194	-4.33837501982211	-4.338375019822107	-0.03370113285055085	0.01446551528871635	-0.1457175410798143	-0.2410383751158067	1.092316484709204e-09	3.434282126892353e-09	-4.023837335240173e-09	-6.383318517678349e-10	1.108939865099669e-09	-1.702074333472389e-09	1.177346056973772e-09
1.01	-0.7817828930018362	-0.17659660157789	0.5786238903527775	2.094214420068546	-0.3066929676703496	0.09806357420524318	-0.4363321578792001	1.110600544011484	1.110600544011524	-0.1745315190919976	0.1745324655568155	-0.01857778309069361	-0.06188417357092253	0.01289923656392644	0.00505161392590269	0.01456298296687998	-0.05205225688137091	-0.00178020773601351	-0.01266140797160147	1.048731232127442e-05	-0.03484262510389809	-0.03484262510389814	4.103576472615731e-06	3.787612795625487e-06	0.002569528716300534	-0.0008579643066258073	-0.5074490689472727	-0.002200515815120277	-0.01683686864515389	-0.1986690737376942	0.1931336874927687	0.03873995558774843	0.3891995717715916	14.79439438857448	-19.07751204298836	2.253389825580919	3.911882684923153	-736.876276142702	-43.11009937336235	-3.410773890583637	2.347650778696856	0.3959529522411829	1.741752350518858	-6.785998009704011	-0.2383625147113728	-1.609405883533619	0.01396203377010225	-4.334663620038402	-4.334663620038379	0.01690567326680506	-0.006397458422493848	-0.1428761084793675	-0.2145529586004352	-1.310708670877213e-09	-4.284250811292198e-09	1.333420238228422e-08	-6.513368532202194e-10	-3.5337850452802e-09	1.728564812211601e-08	-3.510084109351778e-09
1.02	-0.781536095118008	-0.1765262280993645	0.5788566185204066	2.09335418464292	-0.3067230692385179	0.09785677752483729	-0.4363317668201343	1.11003541459536	1.110035414595593	-0.1745314730698951	0.1745324951111063	-0.01855931690194327	-0.06190387730444105	0.03645735693376659	0.009023987179790013	0.03197913964737398	-0.119984760934206	-0.004237393010663684	-0.02869404185328323	7.602512623157358e-05	-0.07817867042106176	-0.07817867042106212	5.269753413404411e-06	3.443940398914523e-07	0.001121809452565	-0.003080525718568886	-0.5073508950429517	-0.002155968582406684	-0.01683839429743927	-0.1986088532029414	0.1930498583050851	0.03877468441719514	0.389152227548468	14.77266623524463	-19.09027501574835	2.257120574744409	3.895713362014639	-736.8199162573419	-43.11293541939032	-3.433287790819707	2.373030317515616	0.3995347121012416	1.742397008855411	-6.810774449450476	-0.2612426257543615	-1.59213823426929	-0.01075290941545309	-4.332864088022265	-4.332864088022387	-0.03350942133122042	0.01230266403233605	-0.1479943579455059	-0.2383376801287973	-3.158835177551752e-09	-1.219693459124217e-08	3.055807517151275e-08	-2.230502837646538e-09	-7.556765114970138e-09	3.641343675051561e-08	-8.33183335509988e-09
1.03	-0.7810537515215132	-0.1764160761802164	0.5792633335942025	2.091815035715809	-0.3067776362387614	0.0974898220104691	-0.436330688416228	1.109037195302712	1.10903719530305	-0.1745314317993297	0.1745324694047326	-0.01855541638455701	-0.06194572131993892	0.06001320776820976	0.01300997611063124	0.04935342948438231	-0.1878234049774305	-0.006669701690052325	-0.0446885559344273	0.0001268853320863287	-0.1214473168256246	-0.1214473168256268	3.140275442253677e-06	-4.865457576492761e-06	-0.0003464511224235925	-0.005283118536485356	-0.5066213662199929	-0.002099301138888623	-0.01686297545769309	-0.1986657771912781	0.1931644888533639	0.03884675057065944	0.3886887675039357	14.8419583967337	-19.13779999923755	2.269373688304477	3.795014615952843	-736.3478024395027	-43.20015478398057	-3.473260127170978	2.347137762555096	0.3986671278951582	1.73337578797899	-6.767168224182135	-0.2332827034741103	-1.601843291787689	0.01108993642807856	-4.321181563989401	-4.321181563989608	0.01645346614364918	-0.006852421680779254	-0.1469526371122641	-0.2104487717388129	-5.001299453114943e-09	-2.011159950223057e-08	4.778057891045255e-08	-3.825650056593007e-09	-1.157342125771425e-08	5.554265462557655e-08	-1.315495320369923e-08
1.04	-0.7803357943574432	-0.176265957142896	0.5798434777297394	2.089598148579781	-0.3068563378686873	0.0969631742959417	-0.4363294845200499	1.107606826216554	1.107606826216997	-0.1745314081881049	0.1745324076774571	-0.01856634061888782	-0.06200943700143909	0.0835800704485072	0.01701741081425297	0.06666495199560193	-0.255532402717605	-0.009064318947161747	-0.06063248188560045	0.0001011235716232859	-0.1646086291228318	-0.1646086291228352	1.737884420213301e-06	-6.859786079209794e-06	-0.001843140890881079	-0.007454858919031199	-0.505891837397031	-0.002042633695366441	-0.01688755661793757	-0.1987227011796155	0.1932791194016437	0.03891881672412804	0.3882253074594068	14.90714006671238	-19.18553942685225	2.282728253063974	3.692725320789155	-735.9372899600063	-43.2645555854805	-3.530905812450183	2.375232686686467	0.4038238666573402	1.729843543697667	-6.784845188840463	-0.2537043412985228	-1.582020608275115	-0.0260773026790285	-4.311397266551111	-4.311397266551114	-0.03336400394139859	0.0129457686550796	-0.1536801966392883	-0.232167193054678	-7.261609029364182e-09	-2.772220417450416e-08	6.356675965398998e-08	-3.973732015183575e-09	-1.595365762812338e-08	7.294684066179879e-08	-1.757143097281856e-08
1.05	-0.7793821421539874	-0.176075624608919	0.580596381558222	2.086704903672843	-0.3069587721012022	0.09627737270397339	-0.4363287562019474	1.105745396518783	1.10574539651897	-0.1745314241907211	0.1745323542110311	-0.01859241673103913	-0.06209469910431947	0.1071485295980984	0.02105574826524047	0.08390120355008213	-0.3230858892556943	-0.01141210075488264	-0.07651760963087302	4.915923246054915e-05	-0.2076579289340084	-0.2076579289340062	-4.042005603636878e-06	-3.198372499673647e-06	-0.003380632670333177	-0.009589030888269507	-0.5049582763032675	-0.001918783397812978	-0.01692541225076508	-0.198751089152687	0.1934009946844394	0.03907114055357877	0.3876950370148211	14.98688809193728	-19.27197812897994	2.303729123956319	3.546097238697958	-735.3783067049419	-43.40498307165972	-3.606646412319065	2.34737393397494	0.4048357105618658	1.718320325281996	-6.735999921288438	-0.2237568488924024	-1.590243414905155	0.00593687711897955	-4.298784674233988	-4.298784674233156	0.01594062420927357	-0.005849432365763904	-0.1550648486574533	-0.2027664169259311	-9.534976271259858e-09	-3.532330696431792e-08	7.930805530392108e-08	-4.076593184388028e-09	-2.034525588064703e-08	9.029711945305734e-08	-2.197520117695415e-08
1.06	-0.7781928610780595	-0.1758447092951837	0.581521208775041	2.083137043993519	-0.3070843725014711	0.09543302292310207	-0.4363284089518663	1.103454056155731	1.10345405615567	-0.1745314728710852	0.1745323522067174	-0.01863412399699682	-0.06220104777050573	0.1307058449428656	0.02513396676592237	0.1010496296629016	-0.3904553571935981	-0.01369755249794449	-0.09234211966621869	2.490995944928362e-05	-0.2505907621785073	-0.2505907621784995	-4.797665940890562e-06	3.432638073576739e-06	-0.0049693716521564	-0.01167217158020857	-0.5040247152095313	-0.001794933100262395	-0.01696326788360226	-0.19877947712575	0.1935228699672408	0.03922346438302771	0.387164766570202	15.06246108990314	-19.35868855115805	2.325918900287315	3.397900850130711	-734.881741698768	-43.52353914563272	-3.700939810236986	2.373003925721655	0.4118000765962168	1.712278455365528	-6.74804146880336	-0.2412383283667089	-1.569897066289732	-0.02053428944883647	-4.288103953215557	-4.28810395321555	-0.03235915800406611	0.01353968805381668	-0.1639296371135211	-0.2219609375948238	-1.133716917210401e-08	-4.205077094459219e-08	9.434972386902659e-08	-4.87151604349085e-09	-2.408084366549707e-08	1.059234717663672e-07	-2.602215026136074e-08
1.07	-0.7767679862639223	-0.1755727746873289	0.5826170342168057	2.078896439418637	-0.3072324860780741	0.09443082187938572	-0.4363282242808779	1.100734060353983	1.100734060353908	-0.1745315567864643	0.1745324285426345	-0.01869198462525082	-0.06232794592750583	0.1542736819784263	0.0292632017949165	0.1180961493155978	-0.457630863221314	-0.01590928837090042	-0.1080808724813595	1.212276454093312e-05	-0.2933800178174963	-0.2933800178174907	-1.09244492567708e-05	1.013641146644613e-05	-0.006611507590677536	-0.01369362649086454	-0.5027320857929797	-0.001612616290230019	-0.01701639688054409	-0.1988286943133966	0.1937271931548167	0.03942368090778273	0.3864371036867649	15.18217349336618	-19.47610118075514	2.355486375170077	3.186038174997618	-734.1354262229094	-43.70787422117115	-3.814447757237567	2.34935477019432	0.4150211120960602	1.697936705405757	-6.697105033459634	-0.2087681273068475	-1.573307310078284	0.008363844300980659	-4.270073249212776	-4.270073249213124	0.01540777244193981	-0.006047856298735349	-0.1656665487348303	-0.1901680562761719	-1.311429960799862e-08	-4.873176477542286e-08	1.093541782274924e-07	-5.703250694609547e-09	-2.778153727653468e-08	1.214581258627648e-07	-3.005011949897324e-08
1.08	-0.7751072968438851	-0.175259240549975	0.5838827444521341	2.073985119810743	-0.3074022423955161	0.09327174472332893	-0.436328164526081	1.09758702461985	1.097587024619756	-0.1745316725274857	0.174532515200627	-0.01876652880819266	-0.06247464469130753	0.1778687661228284	0.03345387266571681	0.1350265883756485	-0.5245983637971873	-0.01802610066572927	-0.1237173421345818	-7.327785728002172e-08	-0.3359987486553749	-0.3359987486553719	-1.116279508055601e-05	5.497053628431933e-06	-0.008306082589735857	-0.0156322929405278	-0.5014394563764051	-0.00143029948019275	-0.01706952587747857	-0.1988779115010505	0.1939315163423884	0.03962389743254187	0.385709440803356	15.29762774090676	-19.59387470304109	2.386375441037555	2.97251053021795	-733.4526627322526	-43.87179810910883	-3.94785574898676	2.378453347489938	0.4240872449574449	1.689062336836426	-6.706440378434845	-0.2222536127412754	-1.549440433906017	-0.020416058946885	-4.253998992993514	-4.253998992993551	-0.03118147050562067	0.0112710618076122	-0.1744174492209682	-0.2054032453962626	-1.460332008481709e-08	-5.496765006785425e-08	1.218957767627611e-07	-6.680844797676231e-09	-3.103377395339483e-08	1.341783630463185e-07	-3.351722444166687e-08
